<?xml version="1.0" encoding="utf-8"?>
<!-- Generator: Adobe Illustrator 18.0.0, SVG Export Plug-In . SVG Version: 6.00 Build 0)  -->
<!DOCTYPE svg PUBLIC "-//W3C//DTD SVG 1.1//EN" "http://www.w3.org/Graphics/SVG/1.1/DTD/svg11.dtd">
<svg version="1.1" id="图层_1" xmlns="http://www.w3.org/2000/svg" xmlns:xlink="http://www.w3.org/1999/xlink" x="0px" y="0px"
	 width="23.8px" height="25px" viewBox="0 0 23.8 25" enable-background="new 0 0 23.8 25" xml:space="preserve">
<circle fill="#FFFFFF" cx="21.4" cy="17.8" r="0.4"/>
<circle fill="#FFFFFF" cx="21.3" cy="20.3" r="0.2"/>
<circle fill="#FFFFFF" cx="21.4" cy="9" r="0.2"/>
<circle fill="#FFFFFF" cx="5.6" cy="7.3" r="0.2"/>
<circle fill="#FFFFFF" cx="2.8" cy="15.2" r="0.2"/>
<circle fill="#FFFFFF" cx="19.8" cy="9.5" r="0.2"/>
<circle fill="#FFFFFF" cx="3.4" cy="13.2" r="0.2"/>
<circle fill="#FFFFFF" cx="1.9" cy="11.7" r="0.2"/>
<circle fill="#FFFFFF" cx="6.6" cy="9.9" r="0.2"/>
<circle fill="#FFFFFF" cx="12.1" cy="3.6" r="0.2"/>
<circle fill="#FFFFFF" cx="16.6" cy="2.9" r="0.2"/>
<circle fill="#FFFFFF" cx="15.8" cy="16.5" r="0.2"/>
<circle fill="#FFFFFF" cx="6" cy="22.8" r="0.2"/>
<circle fill="#FFFFFF" cx="3.6" cy="22.7" r="0.1"/>
<circle fill="#FFFFFF" cx="8.3" cy="19.9" r="0.1"/>
<circle fill="#FFFFFF" cx="7" cy="20" r="0.1"/>
<circle fill="#FFFFFF" cx="6.1" cy="19.6" r="0.1"/>
<circle fill="#FFFFFF" cx="18.7" cy="14.8" r="0.1"/>
<circle fill="#FFFFFF" cx="17.2" cy="14" r="0.1"/>
<circle fill="#FFFFFF" cx="9" cy="2.9" r="0.2"/>
<circle fill="#FFFFFF" cx="8.7" cy="1.5" r="0.2"/>
<circle fill="#FFFFFF" cx="8.3" cy="3.4" r="0.1"/>
<circle fill="#FFFFFF" cx="10.1" cy="2" r="0.1"/>
<circle fill="#FFFFFF" cx="1.7" cy="3.2" r="0.4"/>
</svg>
